<svg xmlns="http://www.w3.org/2000/svg" xmlns:xlink="http://www.w3.org/1999/xlink" width="528" height="528" viewBox="0 0 528 528" xml:space="preserve"><g fill="#fff"><g transform="translate(160,32) scale(2.7466666666667)"><rect width="6" height="6"/></g><g transform="translate(176,32) scale(2.7466666666667)"><rect width="6" height="6"/></g><g transform="translate(208,32) scale(2.7466666666667)"><rect width="6" height="6"/></g><g transform="translate(224,32) scale(2.7466666666667)"><rect width="6" height="6"/></g><g transform="translate(304,32) scale(2.7466666666667)"><rect width="6" height="6"/></g><g transform="translate(320,32) scale(2.7466666666667)"><rect width="6" height="6"/></g><g transform="translate(352,32) scale(2.7466666666667)"><rect width="6" height="6"/></g><g transform="translate(192,48) scale(2.7466666666667)"><rect width="6" height="6"/></g><g transform="translate(240,48) scale(2.7466666666667)"><rect width="6" height="6"/></g><g transform="translate(256,48) scale(2.7466666666667)"><rect width="6" height="6"/></g><g transform="translate(288,48) scale(2.7466666666667)"><rect width="6" height="6"/></g><g transform="translate(320,48) scale(2.7466666666667)"><rect width="6" height="6"/></g><g transform="translate(336,48) scale(2.7466666666667)"><rect width="6" height="6"/></g><g transform="translate(176,64) scale(2.7466666666667)"><rect width="6" height="6"/></g><g transform="translate(192,64) scale(2.7466666666667)"><rect width="6" height="6"/></g><g transform="translate(256,64) scale(2.7466666666667)"><rect width="6" height="6"/></g><g transform="translate(336,64) scale(2.7466666666667)"><rect width="6" height="6"/></g><g transform="translate(352,64) scale(2.7466666666667)"><rect width="6" height="6"/></g><g transform="translate(176,80) scale(2.7466666666667)"><rect width="6" height="6"/></g><g transform="translate(192,80) scale(2.7466666666667)"><rect width="6" height="6"/></g><g transform="translate(256,80) scale(2.7466666666667)"><rect width="6" height="6"/></g><g transform="translate(304,80) scale(2.7466666666667)"><rect width="6" height="6"/></g><g transform="translate(336,80) scale(2.7466666666667)"><rect width="6" height="6"/></g><g transform="translate(160,96) scale(2.7466666666667)"><rect width="6" height="6"/></g><g transform="translate(208,96) scale(2.7466666666667)"><rect width="6" height="6"/></g><g transform="translate(240,96) scale(2.7466666666667)"><rect width="6" height="6"/></g><g transform="translate(272,96) scale(2.7466666666667)"><rect width="6" height="6"/></g><g transform="translate(336,96) scale(2.7466666666667)"><rect width="6" height="6"/></g><g transform="translate(352,96) scale(2.7466666666667)"><rect width="6" height="6"/></g><g transform="translate(160,112) scale(2.7466666666667)"><rect width="6" height="6"/></g><g transform="translate(176,112) scale(2.7466666666667)"><rect width="6" height="6"/></g><g transform="translate(208,112) scale(2.7466666666667)"><rect width="6" height="6"/></g><g transform="translate(224,112) scale(2.7466666666667)"><rect width="6" height="6"/></g><g transform="translate(256,112) scale(2.7466666666667)"><rect width="6" height="6"/></g><g transform="translate(272,112) scale(2.7466666666667)"><rect width="6" height="6"/></g><g transform="translate(320,112) scale(2.7466666666667)"><rect width="6" height="6"/></g><g transform="translate(352,112) scale(2.7466666666667)"><rect width="6" height="6"/></g><g transform="translate(160,128) scale(2.7466666666667)"><rect width="6" height="6"/></g><g transform="translate(192,128) scale(2.7466666666667)"><rect width="6" height="6"/></g><g transform="translate(224,128) scale(2.7466666666667)"><rect width="6" height="6"/></g><g transform="translate(256,128) scale(2.7466666666667)"><rect width="6" height="6"/></g><g transform="translate(288,128) scale(2.7466666666667)"><rect width="6" height="6"/></g><g transform="translate(320,128) scale(2.7466666666667)"><rect width="6" height="6"/></g><g transform="translate(352,128) scale(2.7466666666667)"><rect width="6" height="6"/></g><g transform="translate(208,144) scale(2.7466666666667)"><rect width="6" height="6"/></g><g transform="translate(256,144) scale(2.7466666666667)"><rect width="6" height="6"/></g><g transform="translate(272,144) scale(2.7466666666667)"><rect width="6" height="6"/></g><g transform="translate(352,144) scale(2.7466666666667)"><rect width="6" height="6"/></g><g transform="translate(48,160) scale(2.7466666666667)"><rect width="6" height="6"/></g><g transform="translate(64,160) scale(2.7466666666667)"><rect width="6" height="6"/></g><g transform="translate(80,160) scale(2.7466666666667)"><rect width="6" height="6"/></g><g transform="translate(96,160) scale(2.7466666666667)"><rect width="6" height="6"/></g><g transform="translate(112,160) scale(2.7466666666667)"><rect width="6" height="6"/></g><g transform="translate(128,160) scale(2.7466666666667)"><rect width="6" height="6"/></g><g transform="translate(144,160) scale(2.7466666666667)"><rect width="6" height="6"/></g><g transform="translate(176,160) scale(2.7466666666667)"><rect width="6" height="6"/></g><g transform="translate(192,160) scale(2.7466666666667)"><rect width="6" height="6"/></g><g transform="translate(224,160) scale(2.7466666666667)"><rect width="6" height="6"/></g><g transform="translate(272,160) scale(2.7466666666667)"><rect width="6" height="6"/></g><g transform="translate(288,160) scale(2.7466666666667)"><rect width="6" height="6"/></g><g transform="translate(320,160) scale(2.7466666666667)"><rect width="6" height="6"/></g><g transform="translate(400,160) scale(2.7466666666667)"><rect width="6" height="6"/></g><g transform="translate(416,160) scale(2.7466666666667)"><rect width="6" height="6"/></g><g transform="translate(480,160) scale(2.7466666666667)"><rect width="6" height="6"/></g><g transform="translate(48,176) scale(2.7466666666667)"><rect width="6" height="6"/></g><g transform="translate(64,176) scale(2.7466666666667)"><rect width="6" height="6"/></g><g transform="translate(80,176) scale(2.7466666666667)"><rect width="6" height="6"/></g><g transform="translate(112,176) scale(2.7466666666667)"><rect width="6" height="6"/></g><g transform="translate(176,176) scale(2.7466666666667)"><rect width="6" height="6"/></g><g transform="translate(192,176) scale(2.7466666666667)"><rect width="6" height="6"/></g><g transform="translate(224,176) scale(2.7466666666667)"><rect width="6" height="6"/></g><g transform="translate(256,176) scale(2.7466666666667)"><rect width="6" height="6"/></g><g transform="translate(288,176) scale(2.7466666666667)"><rect width="6" height="6"/></g><g transform="translate(304,176) scale(2.7466666666667)"><rect width="6" height="6"/></g><g transform="translate(368,176) scale(2.7466666666667)"><rect width="6" height="6"/></g><g transform="translate(384,176) scale(2.7466666666667)"><rect width="6" height="6"/></g><g transform="translate(400,176) scale(2.7466666666667)"><rect width="6" height="6"/></g><g transform="translate(416,176) scale(2.7466666666667)"><rect width="6" height="6"/></g><g transform="translate(480,176) scale(2.7466666666667)"><rect width="6" height="6"/></g><g transform="translate(64,192) scale(2.7466666666667)"><rect width="6" height="6"/></g><g transform="translate(80,192) scale(2.7466666666667)"><rect width="6" height="6"/></g><g transform="translate(128,192) scale(2.7466666666667)"><rect width="6" height="6"/></g><g transform="translate(144,192) scale(2.7466666666667)"><rect width="6" height="6"/></g><g transform="translate(272,192) scale(2.7466666666667)"><rect width="6" height="6"/></g><g transform="translate(288,192) scale(2.7466666666667)"><rect width="6" height="6"/></g><g transform="translate(304,192) scale(2.7466666666667)"><rect width="6" height="6"/></g><g transform="translate(320,192) scale(2.7466666666667)"><rect width="6" height="6"/></g><g transform="translate(352,192) scale(2.7466666666667)"><rect width="6" height="6"/></g><g transform="translate(368,192) scale(2.7466666666667)"><rect width="6" height="6"/></g><g transform="translate(384,192) scale(2.7466666666667)"><rect width="6" height="6"/></g><g transform="translate(448,192) scale(2.7466666666667)"><rect width="6" height="6"/></g><g transform="translate(32,208) scale(2.7466666666667)"><rect width="6" height="6"/></g><g transform="translate(48,208) scale(2.7466666666667)"><rect width="6" height="6"/></g><g transform="translate(64,208) scale(2.7466666666667)"><rect width="6" height="6"/></g><g transform="translate(80,208) scale(2.7466666666667)"><rect width="6" height="6"/></g><g transform="translate(144,208) scale(2.7466666666667)"><rect width="6" height="6"/></g><g transform="translate(160,208) scale(2.7466666666667)"><rect width="6" height="6"/></g><g transform="translate(176,208) scale(2.7466666666667)"><rect width="6" height="6"/></g><g transform="translate(224,208) scale(2.7466666666667)"><rect width="6" height="6"/></g><g transform="translate(272,208) scale(2.7466666666667)"><rect width="6" height="6"/></g><g transform="translate(288,208) scale(2.7466666666667)"><rect width="6" height="6"/></g><g transform="translate(320,208) scale(2.7466666666667)"><rect width="6" height="6"/></g><g transform="translate(336,208) scale(2.7466666666667)"><rect width="6" height="6"/></g><g transform="translate(352,208) scale(2.7466666666667)"><rect width="6" height="6"/></g><g transform="translate(368,208) scale(2.7466666666667)"><rect width="6" height="6"/></g><g transform="translate(384,208) scale(2.7466666666667)"><rect width="6" height="6"/></g><g transform="translate(400,208) scale(2.7466666666667)"><rect width="6" height="6"/></g><g transform="translate(432,208) scale(2.7466666666667)"><rect width="6" height="6"/></g><g transform="translate(464,208) scale(2.7466666666667)"><rect width="6" height="6"/></g><g transform="translate(32,224) scale(2.7466666666667)"><rect width="6" height="6"/></g><g transform="translate(48,224) scale(2.7466666666667)"><rect width="6" height="6"/></g><g transform="translate(64,224) scale(2.7466666666667)"><rect width="6" height="6"/></g><g transform="translate(80,224) scale(2.7466666666667)"><rect width="6" height="6"/></g><g transform="translate(96,224) scale(2.7466666666667)"><rect width="6" height="6"/></g><g transform="translate(128,224) scale(2.7466666666667)"><rect width="6" height="6"/></g><g transform="translate(176,224) scale(2.7466666666667)"><rect width="6" height="6"/></g><g transform="translate(192,224) scale(2.7466666666667)"><rect width="6" height="6"/></g><g transform="translate(208,224) scale(2.7466666666667)"><rect width="6" height="6"/></g><g transform="translate(288,224) scale(2.7466666666667)"><rect width="6" height="6"/></g><g transform="translate(304,224) scale(2.7466666666667)"><rect width="6" height="6"/></g><g transform="translate(336,224) scale(2.7466666666667)"><rect width="6" height="6"/></g><g transform="translate(352,224) scale(2.7466666666667)"><rect width="6" height="6"/></g><g transform="translate(368,224) scale(2.7466666666667)"><rect width="6" height="6"/></g><g transform="translate(400,224) scale(2.7466666666667)"><rect width="6" height="6"/></g><g transform="translate(448,224) scale(2.7466666666667)"><rect width="6" height="6"/></g><g transform="translate(464,224) scale(2.7466666666667)"><rect width="6" height="6"/></g><g transform="translate(480,224) scale(2.7466666666667)"><rect width="6" height="6"/></g><g transform="translate(32,240) scale(2.7466666666667)"><rect width="6" height="6"/></g><g transform="translate(48,240) scale(2.7466666666667)"><rect width="6" height="6"/></g><g transform="translate(64,240) scale(2.7466666666667)"><rect width="6" height="6"/></g><g transform="translate(80,240) scale(2.7466666666667)"><rect width="6" height="6"/></g><g transform="translate(96,240) scale(2.7466666666667)"><rect width="6" height="6"/></g><g transform="translate(112,240) scale(2.7466666666667)"><rect width="6" height="6"/></g><g transform="translate(192,240) scale(2.7466666666667)"><rect width="6" height="6"/></g><g transform="translate(256,240) scale(2.7466666666667)"><rect width="6" height="6"/></g><g transform="translate(272,240) scale(2.7466666666667)"><rect width="6" height="6"/></g><g transform="translate(288,240) scale(2.7466666666667)"><rect width="6" height="6"/></g><g transform="translate(304,240) scale(2.7466666666667)"><rect width="6" height="6"/></g><g transform="translate(320,240) scale(2.7466666666667)"><rect width="6" height="6"/></g><g transform="translate(336,240) scale(2.7466666666667)"><rect width="6" height="6"/></g><g transform="translate(352,240) scale(2.7466666666667)"><rect width="6" height="6"/></g><g transform="translate(368,240) scale(2.7466666666667)"><rect width="6" height="6"/></g><g transform="translate(384,240) scale(2.7466666666667)"><rect width="6" height="6"/></g><g transform="translate(416,240) scale(2.7466666666667)"><rect width="6" height="6"/></g><g transform="translate(432,240) scale(2.7466666666667)"><rect width="6" height="6"/></g><g transform="translate(464,240) scale(2.7466666666667)"><rect width="6" height="6"/></g><g transform="translate(480,240) scale(2.7466666666667)"><rect width="6" height="6"/></g><g transform="translate(48,256) scale(2.7466666666667)"><rect width="6" height="6"/></g><g transform="translate(64,256) scale(2.7466666666667)"><rect width="6" height="6"/></g><g transform="translate(80,256) scale(2.7466666666667)"><rect width="6" height="6"/></g><g transform="translate(128,256) scale(2.7466666666667)"><rect width="6" height="6"/></g><g transform="translate(144,256) scale(2.7466666666667)"><rect width="6" height="6"/></g><g transform="translate(160,256) scale(2.7466666666667)"><rect width="6" height="6"/></g><g transform="translate(176,256) scale(2.7466666666667)"><rect width="6" height="6"/></g><g transform="translate(192,256) scale(2.7466666666667)"><rect width="6" height="6"/></g><g transform="translate(224,256) scale(2.7466666666667)"><rect width="6" height="6"/></g><g transform="translate(256,256) scale(2.7466666666667)"><rect width="6" height="6"/></g><g transform="translate(272,256) scale(2.7466666666667)"><rect width="6" height="6"/></g><g transform="translate(288,256) scale(2.7466666666667)"><rect width="6" height="6"/></g><g transform="translate(304,256) scale(2.7466666666667)"><rect width="6" height="6"/></g><g transform="translate(352,256) scale(2.7466666666667)"><rect width="6" height="6"/></g><g transform="translate(400,256) scale(2.7466666666667)"><rect width="6" height="6"/></g><g transform="translate(64,272) scale(2.7466666666667)"><rect width="6" height="6"/></g><g transform="translate(80,272) scale(2.7466666666667)"><rect width="6" height="6"/></g><g transform="translate(224,272) scale(2.7466666666667)"><rect width="6" height="6"/></g><g transform="translate(256,272) scale(2.7466666666667)"><rect width="6" height="6"/></g><g transform="translate(288,272) scale(2.7466666666667)"><rect width="6" height="6"/></g><g transform="translate(304,272) scale(2.7466666666667)"><rect width="6" height="6"/></g><g transform="translate(320,272) scale(2.7466666666667)"><rect width="6" height="6"/></g><g transform="translate(368,272) scale(2.7466666666667)"><rect width="6" height="6"/></g><g transform="translate(416,272) scale(2.7466666666667)"><rect width="6" height="6"/></g><g transform="translate(432,272) scale(2.7466666666667)"><rect width="6" height="6"/></g><g transform="translate(464,272) scale(2.7466666666667)"><rect width="6" height="6"/></g><g transform="translate(480,272) scale(2.7466666666667)"><rect width="6" height="6"/></g><g transform="translate(32,288) scale(2.7466666666667)"><rect width="6" height="6"/></g><g transform="translate(48,288) scale(2.7466666666667)"><rect width="6" height="6"/></g><g transform="translate(64,288) scale(2.7466666666667)"><rect width="6" height="6"/></g><g transform="translate(80,288) scale(2.7466666666667)"><rect width="6" height="6"/></g><g transform="translate(96,288) scale(2.7466666666667)"><rect width="6" height="6"/></g><g transform="translate(128,288) scale(2.7466666666667)"><rect width="6" height="6"/></g><g transform="translate(160,288) scale(2.7466666666667)"><rect width="6" height="6"/></g><g transform="translate(208,288) scale(2.7466666666667)"><rect width="6" height="6"/></g><g transform="translate(224,288) scale(2.7466666666667)"><rect width="6" height="6"/></g><g transform="translate(288,288) scale(2.7466666666667)"><rect width="6" height="6"/></g><g transform="translate(432,288) scale(2.7466666666667)"><rect width="6" height="6"/></g><g transform="translate(448,288) scale(2.7466666666667)"><rect width="6" height="6"/></g><g transform="translate(32,304) scale(2.7466666666667)"><rect width="6" height="6"/></g><g transform="translate(64,304) scale(2.7466666666667)"><rect width="6" height="6"/></g><g transform="translate(96,304) scale(2.7466666666667)"><rect width="6" height="6"/></g><g transform="translate(144,304) scale(2.7466666666667)"><rect width="6" height="6"/></g><g transform="translate(192,304) scale(2.7466666666667)"><rect width="6" height="6"/></g><g transform="translate(208,304) scale(2.7466666666667)"><rect width="6" height="6"/></g><g transform="translate(224,304) scale(2.7466666666667)"><rect width="6" height="6"/></g><g transform="translate(272,304) scale(2.7466666666667)"><rect width="6" height="6"/></g><g transform="translate(320,304) scale(2.7466666666667)"><rect width="6" height="6"/></g><g transform="translate(336,304) scale(2.7466666666667)"><rect width="6" height="6"/></g><g transform="translate(368,304) scale(2.7466666666667)"><rect width="6" height="6"/></g><g transform="translate(384,304) scale(2.7466666666667)"><rect width="6" height="6"/></g><g transform="translate(416,304) scale(2.7466666666667)"><rect width="6" height="6"/></g><g transform="translate(432,304) scale(2.7466666666667)"><rect width="6" height="6"/></g><g transform="translate(464,304) scale(2.7466666666667)"><rect width="6" height="6"/></g><g transform="translate(480,304) scale(2.7466666666667)"><rect width="6" height="6"/></g><g transform="translate(32,320) scale(2.7466666666667)"><rect width="6" height="6"/></g><g transform="translate(64,320) scale(2.7466666666667)"><rect width="6" height="6"/></g><g transform="translate(80,320) scale(2.7466666666667)"><rect width="6" height="6"/></g><g transform="translate(96,320) scale(2.7466666666667)"><rect width="6" height="6"/></g><g transform="translate(112,320) scale(2.7466666666667)"><rect width="6" height="6"/></g><g transform="translate(128,320) scale(2.7466666666667)"><rect width="6" height="6"/></g><g transform="translate(144,320) scale(2.7466666666667)"><rect width="6" height="6"/></g><g transform="translate(224,320) scale(2.7466666666667)"><rect width="6" height="6"/></g><g transform="translate(256,320) scale(2.7466666666667)"><rect width="6" height="6"/></g><g transform="translate(272,320) scale(2.7466666666667)"><rect width="6" height="6"/></g><g transform="translate(288,320) scale(2.7466666666667)"><rect width="6" height="6"/></g><g transform="translate(320,320) scale(2.7466666666667)"><rect width="6" height="6"/></g><g transform="translate(384,320) scale(2.7466666666667)"><rect width="6" height="6"/></g><g transform="translate(400,320) scale(2.7466666666667)"><rect width="6" height="6"/></g><g transform="translate(416,320) scale(2.7466666666667)"><rect width="6" height="6"/></g><g transform="translate(432,320) scale(2.7466666666667)"><rect width="6" height="6"/></g><g transform="translate(32,336) scale(2.7466666666667)"><rect width="6" height="6"/></g><g transform="translate(80,336) scale(2.7466666666667)"><rect width="6" height="6"/></g><g transform="translate(96,336) scale(2.7466666666667)"><rect width="6" height="6"/></g><g transform="translate(144,336) scale(2.7466666666667)"><rect width="6" height="6"/></g><g transform="translate(160,336) scale(2.7466666666667)"><rect width="6" height="6"/></g><g transform="translate(176,336) scale(2.7466666666667)"><rect width="6" height="6"/></g><g transform="translate(240,336) scale(2.7466666666667)"><rect width="6" height="6"/></g><g transform="translate(272,336) scale(2.7466666666667)"><rect width="6" height="6"/></g><g transform="translate(336,336) scale(2.7466666666667)"><rect width="6" height="6"/></g><g transform="translate(352,336) scale(2.7466666666667)"><rect width="6" height="6"/></g><g transform="translate(384,336) scale(2.7466666666667)"><rect width="6" height="6"/></g><g transform="translate(432,336) scale(2.7466666666667)"><rect width="6" height="6"/></g><g transform="translate(464,336) scale(2.7466666666667)"><rect width="6" height="6"/></g><g transform="translate(480,336) scale(2.7466666666667)"><rect width="6" height="6"/></g><g transform="translate(32,352) scale(2.7466666666667)"><rect width="6" height="6"/></g><g transform="translate(64,352) scale(2.7466666666667)"><rect width="6" height="6"/></g><g transform="translate(96,352) scale(2.7466666666667)"><rect width="6" height="6"/></g><g transform="translate(128,352) scale(2.7466666666667)"><rect width="6" height="6"/></g><g transform="translate(160,352) scale(2.7466666666667)"><rect width="6" height="6"/></g><g transform="translate(176,352) scale(2.7466666666667)"><rect width="6" height="6"/></g><g transform="translate(224,352) scale(2.7466666666667)"><rect width="6" height="6"/></g><g transform="translate(272,352) scale(2.7466666666667)"><rect width="6" height="6"/></g><g transform="translate(304,352) scale(2.7466666666667)"><rect width="6" height="6"/></g><g transform="translate(352,352) scale(2.7466666666667)"><rect width="6" height="6"/></g><g transform="translate(368,352) scale(2.7466666666667)"><rect width="6" height="6"/></g><g transform="translate(384,352) scale(2.7466666666667)"><rect width="6" height="6"/></g><g transform="translate(400,352) scale(2.7466666666667)"><rect width="6" height="6"/></g><g transform="translate(416,352) scale(2.7466666666667)"><rect width="6" height="6"/></g><g transform="translate(448,352) scale(2.7466666666667)"><rect width="6" height="6"/></g><g transform="translate(464,352) scale(2.7466666666667)"><rect width="6" height="6"/></g><g transform="translate(480,352) scale(2.7466666666667)"><rect width="6" height="6"/></g><g transform="translate(160,368) scale(2.7466666666667)"><rect width="6" height="6"/></g><g transform="translate(176,368) scale(2.7466666666667)"><rect width="6" height="6"/></g><g transform="translate(224,368) scale(2.7466666666667)"><rect width="6" height="6"/></g><g transform="translate(240,368) scale(2.7466666666667)"><rect width="6" height="6"/></g><g transform="translate(336,368) scale(2.7466666666667)"><rect width="6" height="6"/></g><g transform="translate(352,368) scale(2.7466666666667)"><rect width="6" height="6"/></g><g transform="translate(416,368) scale(2.7466666666667)"><rect width="6" height="6"/></g><g transform="translate(432,368) scale(2.7466666666667)"><rect width="6" height="6"/></g><g transform="translate(480,368) scale(2.7466666666667)"><rect width="6" height="6"/></g><g transform="translate(160,384) scale(2.7466666666667)"><rect width="6" height="6"/></g><g transform="translate(192,384) scale(2.7466666666667)"><rect width="6" height="6"/></g><g transform="translate(208,384) scale(2.7466666666667)"><rect width="6" height="6"/></g><g transform="translate(224,384) scale(2.7466666666667)"><rect width="6" height="6"/></g><g transform="translate(240,384) scale(2.7466666666667)"><rect width="6" height="6"/></g><g transform="translate(256,384) scale(2.7466666666667)"><rect width="6" height="6"/></g><g transform="translate(272,384) scale(2.7466666666667)"><rect width="6" height="6"/></g><g transform="translate(320,384) scale(2.7466666666667)"><rect width="6" height="6"/></g><g transform="translate(336,384) scale(2.7466666666667)"><rect width="6" height="6"/></g><g transform="translate(352,384) scale(2.7466666666667)"><rect width="6" height="6"/></g><g transform="translate(384,384) scale(2.7466666666667)"><rect width="6" height="6"/></g><g transform="translate(416,384) scale(2.7466666666667)"><rect width="6" height="6"/></g><g transform="translate(160,400) scale(2.7466666666667)"><rect width="6" height="6"/></g><g transform="translate(176,400) scale(2.7466666666667)"><rect width="6" height="6"/></g><g transform="translate(192,400) scale(2.7466666666667)"><rect width="6" height="6"/></g><g transform="translate(240,400) scale(2.7466666666667)"><rect width="6" height="6"/></g><g transform="translate(272,400) scale(2.7466666666667)"><rect width="6" height="6"/></g><g transform="translate(288,400) scale(2.7466666666667)"><rect width="6" height="6"/></g><g transform="translate(336,400) scale(2.7466666666667)"><rect width="6" height="6"/></g><g transform="translate(352,400) scale(2.7466666666667)"><rect width="6" height="6"/></g><g transform="translate(416,400) scale(2.7466666666667)"><rect width="6" height="6"/></g><g transform="translate(432,400) scale(2.7466666666667)"><rect width="6" height="6"/></g><g transform="translate(464,400) scale(2.7466666666667)"><rect width="6" height="6"/></g><g transform="translate(480,400) scale(2.7466666666667)"><rect width="6" height="6"/></g><g transform="translate(160,416) scale(2.7466666666667)"><rect width="6" height="6"/></g><g transform="translate(176,416) scale(2.7466666666667)"><rect width="6" height="6"/></g><g transform="translate(208,416) scale(2.7466666666667)"><rect width="6" height="6"/></g><g transform="translate(224,416) scale(2.7466666666667)"><rect width="6" height="6"/></g><g transform="translate(272,416) scale(2.7466666666667)"><rect width="6" height="6"/></g><g transform="translate(320,416) scale(2.7466666666667)"><rect width="6" height="6"/></g><g transform="translate(352,416) scale(2.7466666666667)"><rect width="6" height="6"/></g><g transform="translate(368,416) scale(2.7466666666667)"><rect width="6" height="6"/></g><g transform="translate(384,416) scale(2.7466666666667)"><rect width="6" height="6"/></g><g transform="translate(400,416) scale(2.7466666666667)"><rect width="6" height="6"/></g><g transform="translate(416,416) scale(2.7466666666667)"><rect width="6" height="6"/></g><g transform="translate(432,416) scale(2.7466666666667)"><rect width="6" height="6"/></g><g transform="translate(448,416) scale(2.7466666666667)"><rect width="6" height="6"/></g><g transform="translate(480,416) scale(2.7466666666667)"><rect width="6" height="6"/></g><g transform="translate(160,432) scale(2.7466666666667)"><rect width="6" height="6"/></g><g transform="translate(176,432) scale(2.7466666666667)"><rect width="6" height="6"/></g><g transform="translate(192,432) scale(2.7466666666667)"><rect width="6" height="6"/></g><g transform="translate(208,432) scale(2.7466666666667)"><rect width="6" height="6"/></g><g transform="translate(256,432) scale(2.7466666666667)"><rect width="6" height="6"/></g><g transform="translate(272,432) scale(2.7466666666667)"><rect width="6" height="6"/></g><g transform="translate(288,432) scale(2.7466666666667)"><rect width="6" height="6"/></g><g transform="translate(336,432) scale(2.7466666666667)"><rect width="6" height="6"/></g><g transform="translate(352,432) scale(2.7466666666667)"><rect width="6" height="6"/></g><g transform="translate(368,432) scale(2.7466666666667)"><rect width="6" height="6"/></g><g transform="translate(400,432) scale(2.7466666666667)"><rect width="6" height="6"/></g><g transform="translate(432,432) scale(2.7466666666667)"><rect width="6" height="6"/></g><g transform="translate(448,432) scale(2.7466666666667)"><rect width="6" height="6"/></g><g transform="translate(160,448) scale(2.7466666666667)"><rect width="6" height="6"/></g><g transform="translate(192,448) scale(2.7466666666667)"><rect width="6" height="6"/></g><g transform="translate(224,448) scale(2.7466666666667)"><rect width="6" height="6"/></g><g transform="translate(240,448) scale(2.7466666666667)"><rect width="6" height="6"/></g><g transform="translate(256,448) scale(2.7466666666667)"><rect width="6" height="6"/></g><g transform="translate(304,448) scale(2.7466666666667)"><rect width="6" height="6"/></g><g transform="translate(320,448) scale(2.7466666666667)"><rect width="6" height="6"/></g><g transform="translate(336,448) scale(2.7466666666667)"><rect width="6" height="6"/></g><g transform="translate(352,448) scale(2.7466666666667)"><rect width="6" height="6"/></g><g transform="translate(368,448) scale(2.7466666666667)"><rect width="6" height="6"/></g><g transform="translate(384,448) scale(2.7466666666667)"><rect width="6" height="6"/></g><g transform="translate(400,448) scale(2.7466666666667)"><rect width="6" height="6"/></g><g transform="translate(416,448) scale(2.7466666666667)"><rect width="6" height="6"/></g><g transform="translate(448,448) scale(2.7466666666667)"><rect width="6" height="6"/></g><g transform="translate(464,448) scale(2.7466666666667)"><rect width="6" height="6"/></g><g transform="translate(160,464) scale(2.7466666666667)"><rect width="6" height="6"/></g><g transform="translate(176,464) scale(2.7466666666667)"><rect width="6" height="6"/></g><g transform="translate(208,464) scale(2.7466666666667)"><rect width="6" height="6"/></g><g transform="translate(288,464) scale(2.7466666666667)"><rect width="6" height="6"/></g><g transform="translate(320,464) scale(2.7466666666667)"><rect width="6" height="6"/></g><g transform="translate(336,464) scale(2.7466666666667)"><rect width="6" height="6"/></g><g transform="translate(352,464) scale(2.7466666666667)"><rect width="6" height="6"/></g><g transform="translate(416,464) scale(2.7466666666667)"><rect width="6" height="6"/></g><g transform="translate(432,464) scale(2.7466666666667)"><rect width="6" height="6"/></g><g transform="translate(464,464) scale(2.7466666666667)"><rect width="6" height="6"/></g><g transform="translate(192,480) scale(2.7466666666667)"><rect width="6" height="6"/></g><g transform="translate(240,480) scale(2.7466666666667)"><rect width="6" height="6"/></g><g transform="translate(304,480) scale(2.7466666666667)"><rect width="6" height="6"/></g><g transform="translate(336,480) scale(2.7466666666667)"><rect width="6" height="6"/></g><g transform="translate(416,480) scale(2.7466666666667)"><rect width="6" height="6"/></g><g transform="translate(448,480) scale(2.7466666666667)"><rect width="6" height="6"/></g><g><g><path d="M0,0v14h14V0H0z M12,12H2V2h10V12z" transform="translate(32,32) scale(8)"/></g></g><g><g><path d="M0,0v14h14V0H0z M12,12H2V2h10V12z" transform="translate(384,32) scale(8)"/></g></g><g><g><path d="M0,0v14h14V0H0z M12,12H2V2h10V12z" transform="translate(32,384) scale(8)"/></g></g><g><g transform="translate(64,64) scale(8)"><rect width="6" height="6"/></g></g><g><g transform="translate(416,64) scale(8)"><rect width="6" height="6"/></g></g><g><g transform="translate(64,416) scale(8)"><rect width="6" height="6"/></g></g></g></svg>