<?xml version="1.0" encoding="utf-8"?>
<!-- Generator: Adobe Illustrator 26.5.0, SVG Export Plug-In . SVG Version: 6.00 Build 0)  -->
<svg version="1.1" id="Layer_1" xmlns="http://www.w3.org/2000/svg" xmlns:xlink="http://www.w3.org/1999/xlink" x="0px" y="0px"
	 viewBox="0 0 787.3 800.1" style="enable-background:new 0 0 787.3 800.1;" xml:space="preserve">
<style type="text/css">
	.st0{fill:#2241DD;}
	.st1{fill:#D3B32D;}
</style>
<g>
	<path class="st0" d="M405.1,245.7c77.4,23.4,153.9,46.6,230.2,70c3.3,1,7.4,3.6,8.8,6.5c19.1,41.8,37.8,83.9,56.4,126
		c10,22.5,20.8,44.7,28.7,67.9c7.4,22,10.8,45.9-4.3,66.5c-8.4,11.2-19.1,21.5-31.1,28.9c-61.2,39-128.6,64.1-198.2,83.9
		c-71.5,20.3-144.6,30.1-218.5,35.9c-48,3.8-96.1,6.7-143.9-0.5c-27-4.1-53.8-8.8-80.8-13.1c-0.2-1-0.5-2.2-0.7-3.1
		c8.1-2.4,16.3-5.7,24.6-6.7c71-8.6,132.9-39,191.9-77.2c52.1-33.7,98.5-73.9,141.5-118.1c2.2-2.2,5.3-7.4,5.3-7.4
		s22.2-55.2,23.9-85.3c0-2.2-3.3-5.3-5.7-6.5c-54.5-23.2-109-46.1-163.5-69.1c-0.7-0.2-1.4,0-2.4,0c-6.2,21.8-5.3,141.3,0,170.9
		c-5.5-9.3-11-18.6-16.3-28.2c-15.1-27.5-29.9-55.2-45.2-82.7c-4.5-8.1-4.8-15.3-1-23.7c25.8-55.5,51.6-110.9,77.4-166.4
		c3.1-6.7,6.9-5.5,12.4-3.8C331.5,222.5,367.8,234,405.1,245.7z"/>
</g>
<g>
	<path class="st1" d="M636,211.1c16,4.2,16,4.2,21.5-11.4c4-11.5,8.3-22.9,14.5-34.4c3,11.5,7.3,23,8.5,34.7
		c1.7,16.5,8,25.9,25.7,27.4c9.2,0.7,18,4.5,29.2,7.5c-15.4,7-28.6,13.7-42.2,19c-5.3,2.2-7.3,4.5-6.8,10.2c0.8,11,1,22.2,1.3,33.2
		c0.2,3,0,5.8-1.8,9.5c-8.5-10-17.2-19.9-25.2-30.2c-8.2-10.5-7.7-10.9-20-6.3c-10.7,3.8-21.4,7.7-33.4,10.2
		c6.5-10.4,12.4-21,19.7-30.7c4.8-6.5,3.8-11.2-0.2-17.2c-6-8.5-11.5-17.4-17.2-26c0.5-0.7,1-1.3,1.5-2
		C618.8,207,627.1,209,636,211.1z"/>
</g>
<g>
	<path class="st1" d="M493,34.2c9.7,11.4,19,22.7,28.9,33.4c1.6,1.8,5.4,1.8,8.3,1.7c18.3-1.2,34.6-9.4,50.5-18.2
		c0.9-0.4,1.9-0.6,4.7,0c-3.8,8.9-7.5,17.7-11.4,26.7c-4.3,9.5-9.7,18.6-12.4,28.6c-1.2,4.1,2.7,10.5,5.7,14.7
		c7.8,11.4,16.3,22.1,24.5,33.3c1,1.2,1.7,2.9,3.5,5.6c-3.4-0.3-5.3-0.3-7.1-0.6c-15.3-2.2-30.7-4.3-46-6.9c-9.6-1.7-13.2,6.5-18,12
		c-5.3,5.9-9.1,13.2-14.1,19.4c-4.4,5.2-9.6,9.8-15.8,16c-0.9-14.3-1.9-26.5-2.2-38.8c-0.4-19.9-0.1-20.5-17.6-26.1
		c-15.8-5.1-31.9-9.1-48.1-13.5c11.8-5.9,23.7-12.1,35.6-18c4.4-2.2,8.8-4.5,13.5-6.6c5.8-2.5,8-6.6,8-13.6
		c-0.3-17.5,0.4-34.9,0.8-52.3c0.1-1.2,0.8-2.3,1.6-4.4C487.9,29.5,490.3,31.6,493,34.2z"/>
</g>
</svg>
