<svg xmlns="http://www.w3.org/2000/svg" xmlns:xlink="http://www.w3.org/1999/xlink" id="Layer_1" x="0" y="0" version="1.1" viewBox="0 0 787.3 800.1" style="enable-background:new 0 0 787.3 800.1" xml:space="preserve"><style type="text/css">.st0{fill:#aec3d6}.st1{fill:#2241dd}.st2{fill:#d3b32d}.st3{fill:#fff}</style><g><path d="M467.5,512.8c3.4,12.1,5.9,24,10.3,35.3c3.4,8.9,1.4,14.6-5.4,20.5c-20,17.4-36.7,37.5-50.5,60.1 c-8.6,14.1-14.5,29.2-16,45.7c-0.9,10.5,3,20,8.1,28.8c9.5,16.3,23.1,28.7,38.8,38.7c3.6,2.3,7.1,4.8,10.6,7.1 c-0.2,0.4-0.3,0.8-0.5,1.2c-3.9-0.7-8-0.9-11.8-2.1c-14.4-4.6-28.9-8.7-42.9-14.3c-26.7-10.7-49.8-27.3-71.8-45.4 c-14.8-12.2-28-25.8-39.7-41.2c-11.8-15.5-22.2-31.7-28.6-50c-4-11.5-6.5-23.7-9.3-35.6c-0.7-3.1-1.6-4.3-5-4.4 c-16.5-0.5-32.9-1.2-49.4-2c-2.7-0.1-5.4-0.9-8.6-2.4c5.8-3,11.5-6.1,17.4-8.9c21.1-10.2,42.2-20.2,63.3-30.3 c15.3-7.3,30.5-14.8,45.9-22.1c6.8-3.2,6.9-3.2,10.5,3.4c8.1,14.5,16.1,29.1,24.2,43.6c0.2,0.4,0.6,0.8,1.5,1.7 c33.1-22,69.5-39.1,97.4-67.8C459.9,485.9,463.7,499.2,467.5,512.8z" class="st0"/></g><g><path d="M369.7,99c32.4,9.8,64.4,19.5,96.3,29.3c1.4,0.4,3.1,1.5,3.7,2.7c8,17.5,15.8,35.1,23.6,52.7 c4.2,9.4,8.7,18.7,12,28.4c3.1,9.2,4.5,19.2-1.8,27.8c-3.5,4.7-8,9-13,12.1c-25.6,16.3-53.8,26.8-82.9,35.1 c-29.9,8.5-60.5,12.6-91.4,15c-20.1,1.6-40.2,2.8-60.2-0.2c-11.3-1.7-22.5-3.7-33.8-5.5c-0.1-0.4-0.2-0.9-0.3-1.3 c3.4-1,6.8-2.4,10.3-2.8c29.7-3.6,55.6-16.3,80.3-32.3c21.8-14.1,41.2-30.9,59.2-49.4c0.9-0.9,2.2-3.1,2.2-3.1s9.3-23.1,10-35.7 c0-0.9-1.4-2.2-2.4-2.7c-22.8-9.7-45.6-19.3-68.4-28.9c-0.3-0.1-0.6,0-1,0c-2.6,9.1-2.2,59.1,0,71.5c-2.3-3.9-4.6-7.8-6.8-11.8 c-6.3-11.5-12.5-23.1-18.9-34.6c-1.9-3.4-2-6.4-0.4-9.9c10.8-23.2,21.6-46.4,32.4-69.6c1.3-2.8,2.9-2.3,5.2-1.6 C338.9,89.3,354.1,94.1,369.7,99z" class="st1"/></g><g><path d="M564.1,237.2c9.6,2.5,9.6,2.5,12.9-6.8c2.4-6.9,5-13.7,8.7-20.6c1.8,6.9,4.4,13.8,5.1,20.8 c1,9.9,4.8,15.5,15.4,16.4c5.5,0.4,10.8,2.7,17.5,4.5c-9.2,4.2-17.1,8.2-25.3,11.4c-3.2,1.3-4.4,2.7-4.1,6.1 c0.5,6.6,0.6,13.3,0.8,19.9c0.1,1.8,0,3.5-1.1,5.7c-5.1-6-10.3-11.9-15.1-18.1c-4.9-6.3-4.6-6.5-12-3.8c-6.4,2.3-12.8,4.6-20,6.1 c3.9-6.2,7.4-12.6,11.8-18.4c2.9-3.9,2.3-6.7-0.1-10.3c-3.6-5.1-6.9-10.4-10.3-15.6c0.3-0.4,0.6-0.8,0.9-1.2 C553.8,234.7,558.8,235.9,564.1,237.2z" class="st2"/></g><g><path d="M559.7,63.1c7.5,8.3,14.7,16.5,22.3,24.3c1.2,1.3,4.2,1.3,6.4,1.2c14.1-0.9,26.7-6.8,39-13.2 c0.7-0.3,1.5-0.4,3.6,0c-2.9,6.5-5.8,12.9-8.8,19.4c-3.3,6.9-7.5,13.5-9.6,20.8c-0.9,3,2.1,7.6,4.4,10.7c6,8.3,12.6,16.1,18.9,24.2 c0.8,0.9,1.3,2.1,2.7,4.1c-2.6-0.2-4.1-0.2-5.5-0.4c-11.8-1.6-23.7-3.1-35.5-5c-7.4-1.2-10.2,4.7-13.9,8.7 c-4.1,4.3-7,9.6-10.9,14.1c-3.4,3.8-7.4,7.1-12.2,11.6c-0.7-10.4-1.5-19.3-1.7-28.2c-0.3-14.5-0.1-14.9-13.6-19 c-12.2-3.7-24.6-6.6-37.1-9.8c9.1-4.3,18.3-8.8,27.5-13.1c3.4-1.6,6.8-3.3,10.4-4.8c4.5-1.8,6.2-4.8,6.2-9.9 c-0.2-12.7,0.3-25.4,0.6-38c0.1-0.9,0.6-1.7,1.2-3.2C555.8,59.7,557.6,61.2,559.7,63.1z" class="st2"/></g><g><g><path d="M185.1,478.9c-19.2-5.6-35.2-11.4-53.2-19c-3-1.2-6.2-1.8-9.4-2c-30.4-2-58.8-24.4-58.8-68.4 c0-40.4,25.6-70.8,65.8-70.8c41.2,0,63.8,31.2,63.8,68c0,30.6-14.2,52.2-32,60.2v0.8c10.4,3,22,5.4,32.6,7.6L185.1,478.9z M161.1,388c0-24.6-11.6-45-32.4-45s-32.8,20.4-32.8,45.6c-0.2,25.6,12.2,45.2,32.6,45.2C149.1,433.8,161.1,414.4,161.1,388z" class="st3"/></g><g><path d="M300.5,424.4c0,12.8,0.4,23.2,0.8,31.4h-26.4l-1.4-13.8h-0.6c-3.8,6-13,16-30.6,16 c-19.8,0-34.4-12.4-34.4-42.6V358h30.6v52.6c0,14.2,4.6,22.8,15.2,22.8c8.4,0,13.2-5.8,15.2-10.6c0.8-1.8,1-4.2,1-6.6V358h30.6 V424.4z" class="st3"/></g><g><path d="M351.3,330.8c0,8.4-6.4,15.2-16.4,15.2c-9.6,0-16-6.8-15.8-15.2c-0.2-8.8,6.2-15.4,16-15.4 S351.1,322,351.3,330.8z M319.9,455.8V358h30.4v97.8H319.9z" class="st3"/></g><g><path d="M361.9,438.4l30.8-38.6c5.6-6.6,10-11.4,15.6-17.4V382h-43v-24h80v18.2l-29.4,37c-5.4,6.4-10.4,12.6-16,18 v0.4h47v24.2h-85V438.4z" class="st3"/></g><g><path d="M514.1,455.8l-1.8-9.8h-0.6c-6.4,7.8-16.4,12-28,12c-19.8,0-31.6-14.4-31.6-30c0-25.4,22.8-37.6,57.4-37.4 v-1.4c0-5.2-2.8-12.6-17.8-12.6c-10,0-20.6,3.4-27,7.4l-5.6-19.6c6.8-3.8,20.2-8.6,38-8.6c32.6,0,43,19.2,43,42.2v34 c0,9.4,0.4,18.4,1.4,23.8H514.1z M510.5,409.6c-16-0.2-28.4,3.6-28.4,15.4c0,7.8,5.2,11.6,12,11.6c7.6,0,13.8-5,15.8-11.2 c0.4-1.6,0.6-3.4,0.6-5.2V409.6z" class="st3"/></g><g><path d="M559.1,390.2c0-14.4-0.4-23.8-0.8-32.2h26.2l1,18h0.8c5-14.2,17-20.2,26.4-20.2c2.8,0,4.2,0,6.4,0.4v28.6 c-2.2-0.4-4.8-0.8-8.2-0.8c-11.2,0-18.8,6-20.8,15.4c-0.4,2-0.6,4.4-0.6,6.8v49.6h-30.4L559.1,390.2L559.1,390.2z" class="st3"/></g><g><path d="M723.3,313.8v112.8c0,11,0.4,22.6,0.8,29.2h-27l-1.4-14.4h-0.4c-6.2,11-18,16.6-30.6,16.6 c-23.2,0-41.8-19.8-41.8-50.2c-0.2-33,20.4-52,43.8-52c12,0,21.4,4.2,25.8,11h0.4v-53H723.3z M692.9,399.4c0-1.6-0.2-3.8-0.4-5.4 c-1.8-8.2-8.4-15-17.8-15c-13.8,0-21,12.4-21,27.8c0,16.6,8.2,27,20.8,27c8.8,0,15.8-6,17.6-14.6c0.6-2.2,0.8-4.4,0.8-7 L692.9,399.4L692.9,399.4z" class="st3"/></g></g></svg>